<?xml version="1.0" encoding="UTF-8" standalone="no"?>
<svg
   width="55"
   height="16"
   fill="currentColor"
   class="bi bi-folder"
   viewBox="0 0 55 16"
   version="1.1"
   id="svg1"
   sodipodi:docname="autosftp_logo_path.svg"
   inkscape:version="1.3 (0e150ed6c4, 2023-07-21)"
   xml:space="preserve"
   xmlns:inkscape="http://www.inkscape.org/namespaces/inkscape"
   xmlns:sodipodi="http://sodipodi.sourceforge.net/DTD/sodipodi-0.dtd"
   xmlns="http://www.w3.org/2000/svg"
   xmlns:svg="http://www.w3.org/2000/svg"><defs
     id="defs1" /><sodipodi:namedview
     id="namedview1"
     pagecolor="#ffffff"
     bordercolor="#000000"
     borderopacity="0.25"
     inkscape:showpageshadow="2"
     inkscape:pageopacity="0.0"
     inkscape:pagecheckerboard="0"
     inkscape:deskcolor="#d1d1d1"
     inkscape:zoom="11.313709"
     inkscape:cx="23.953242"
     inkscape:cy="11.976621"
     inkscape:window-width="1920"
     inkscape:window-height="1017"
     inkscape:window-x="1912"
     inkscape:window-y="-8"
     inkscape:window-maximized="1"
     inkscape:current-layer="svg1"
     showguides="false" /><g
     id="g21"><g
       id="g1"
       transform="matrix(0.86072856,0,0,0.86072856,0.79942876,1.5445358)"><path
         d="M 0.54,3.87 0.5,3 a 2,2 0 0 1 2,-2 H 6.172 A 2,2 0 0 1 7.586,1.586 L 8.414,2.414 A 2,2 0 0 0 9.828,3 h 3.982 a 2,2 0 0 1 1.992,2.181 l -0.637,7 A 2,2 0 0 1 13.174,14 H 2.826 A 2,2 0 0 1 0.835,12.181 l -0.637,-7 A 2,2 0 0 1 0.54,3.871 Z M 2.19,4 A 1,1 0 0 0 1.194,5.09 l 0.637,7 A 1,1 0 0 0 2.826,13 h 10.348 a 1,1 0 0 0 0.995,-0.91 l 0.637,-7 A 1,1 0 0 0 13.81,4 Z M 6.88,2.293 A 1,1 0 0 0 6.172,2 H 2.5 a 1,1 0 0 0 -1,0.981 L 1.506,3.12 Q 1.829,3.001 2.19,3 h 5.396 z"
         id="path1" /><path
         style="fill:#ffd42a;stroke-width:0.0672663"
         d="M 2.5840374,12.956174 C 2.4154202,12.912001 2.2963218,12.846411 2.1647246,12.72525 2.0321118,12.603154 1.9324872,12.451349 1.8852489,12.299393 1.8557966,12.204651 1.7865198,11.498034 1.5206673,8.5806966 1.235315,5.4493777 1.1948246,4.9640872 1.2106491,4.8650296 1.2781905,4.4422373 1.5852826,4.1187621 2.0022247,4.031224 c 0.188214,-0.039516 11.8073363,-0.039516 11.9955503,0 0.416762,0.0875 0.724038,0.4110342 0.791509,0.8333868 0.01573,0.09848 -0.02531,0.5911213 -0.309809,3.7183246 -0.301035,3.3090236 -0.331557,3.6151936 -0.371978,3.7314236 -0.05797,0.16668 -0.132644,0.279922 -0.267531,0.405679 -0.136848,0.127586 -0.252979,0.191431 -0.431031,0.236969 -0.135672,0.0347 -0.213686,0.03519 -5.4162313,0.03423 -5.141498,-9.55e-4 -5.2819552,-0.0019 -5.4086663,-0.03506 z"
         id="path2" /><path
         style="fill:#aa8800;stroke-width:0.0672663"
         d="m 1.512792,2.9848293 c 0,-0.4391364 0.3266955,-0.8425342 0.766236,-0.9461346 0.1728565,-0.040743 3.9604708,-0.041193 4.1199024,-4.901e-4 0.2446492,0.062459 0.3065016,0.1075845 0.7467871,0.5448294 l 0.4093437,0.4065169 -2.7497219,3.239e-4 c -2.8951556,3.41e-4 -2.9220672,0.00101 -3.1768632,0.079205 -0.048943,0.01502 -0.094995,0.027396 -0.1023359,0.027502 -0.00734,1.059e-4 -0.013348,-0.050183 -0.013348,-0.1117525 z"
         id="path3" /></g><path
       d="M 24.318727,3.7918845 23.953391,4.8655841 H 24.64781 Z M 23.953391,6.6866901 H 22.416745 V 5.7580096 h 0.295616 L 23.440246,3.736108 H 23.127897 V 2.8074275 h 2.78883 V 3.736108 h -0.312349 l 0.741829,2.0219016 h 0.28446 v 0.9286805 h -2.02469 V 5.8360969 h 0.340236 L 24.798406,5.3480517 h -0.992823 l -0.170119,0.4880452 h 0.317927 z M 27.149389,4.8321182 H 26.823097 V 3.981525 h 1.729074 v 1.2884394 q 0,0.3262932 0.06135,0.4378464 0.05856,0.1143415 0.250995,0.1143415 0.234261,0 0.435057,-0.1254966 V 4.8321182 h -0.37091 V 3.981525 h 1.773696 v 1.8545719 h 0.326293 V 6.6866901 H 29.299577 V 6.343664 q -0.554977,0.3932251 -1.135054,0.3932251 -0.415535,0 -0.71394,-0.264939 -0.301194,-0.2649388 -0.301194,-0.998401 z m 6.470086,0.8673261 v 0.8310714 q -0.136645,0.092031 -0.396014,0.161752 -0.273305,0.072509 -0.5243,0.072509 -0.315137,0 -0.541033,-0.1031864 Q 31.926655,6.5556144 31.809525,6.37713 31.745387,6.2739436 31.714698,6.1902783 31.684024,6.103824 31.670074,5.9978491 31.650545,5.8137863 31.650545,5.2866975 V 4.8321182 H 31.30473 V 3.981525 h 0.345815 V 3.5659894 L 33.053342,2.899459 v 1.082066 h 0.566133 v 0.8505932 h -0.566133 v 0.5243 q 0,0.2565723 0.04741,0.3430261 0.04462,0.086454 0.189641,0.086454 0.136661,0 0.329082,-0.086454 z m 1.876882,-0.3737032 q 0,0.6470085 0.462946,0.6470085 0.490834,0 0.490834,-0.6525862 0,-0.2984048 -0.119921,-0.4629457 -0.122711,-0.1645411 -0.345814,-0.1645411 -0.220318,0 -0.354182,0.1617522 -0.13387,0.1617522 -0.13387,0.4713123 z m -1.419514,-0.00558 q 0,-0.5968095 0.501989,-1.0067676 0.50199,-0.4099581 1.355372,-0.4099581 0.858959,0 1.397204,0.3960139 0.538243,0.3960139 0.538243,1.0318671 0,0.6135426 -0.513144,1.0235007 -0.513145,0.4099601 -1.355371,0.4099601 -0.909159,0 -1.416725,-0.4099581 -0.507568,-0.4071692 -0.507568,-1.0346559 z"
       id="text9"
       style="font-size:3.82828px;line-height:44.9%;font-family:'Rockwell Extra Bold';-inkscape-font-specification:'Rockwell Extra Bold, Normal';text-align:center;text-anchor:middle;stroke-width:0.0398377"
       aria-label="Auto" /><g
       id="g16"
       transform="matrix(1.4919295,0,0,1.4919295,-9.4544747,-4.0215745)"><g
         id="text10"
         style="font-size:5.23153px;line-height:44.9%;font-family:'Rockwell Extra Bold';-inkscape-font-specification:'Rockwell Extra Bold, Normal';text-align:center;text-anchor:middle;stroke-width:0.0364897"
         aria-label="sFTP"><path
           style="fill:#ff0000"
           d="M 18.101996,10.807691 H 17.30756 v -0.786773 h 0.743347 q 0.286099,0.301426 0.625842,0.301426 0.342298,0 0.342298,-0.140495 0,-0.07152 -0.07408,-0.109842 -0.07663,-0.04087 -0.406158,-0.1200591 -0.265664,-0.071525 -0.587526,-0.1660398 -0.278436,-0.079188 -0.439367,-0.1992477 -0.166039,-0.1200595 -0.222237,-0.2350101 -0.06131,-0.1149506 -0.06131,-0.3014261 0,-0.4112677 0.291208,-0.6054066 0.288654,-0.1915843 0.733129,-0.1915843 0.459803,0 0.771447,0.1737031 V 8.2992135 h 0.784218 v 0.7203572 h -0.725466 q -0.270772,-0.2580003 -0.643723,-0.2580003 -0.293763,0 -0.293763,0.155822 0,0.074079 0.08685,0.097069 0.07408,0.02299 0.490456,0.1098417 0.472574,0.099624 0.738238,0.1992477 0.263109,0.099624 0.395941,0.2631092 0.130277,0.1634853 0.130277,0.4010499 0,0.4291491 -0.319307,0.6335061 -0.316753,0.201802 -0.781664,0.201802 -0.462357,0 -0.784219,-0.168594 z"
           id="path20" /><path
           style="letter-spacing:0px"
           d="m 23.513546,11.247038 h -2.158517 v -0.850635 h 0.37295 V 8.5444212 H 21.342256 V 7.6937867 h 3.499608 v 1.1699418 h -0.94515 V 8.5444212 h -0.794436 v 0.5466541 h 0.61307 v 0.7229116 h -0.61307 v 0.5824161 h 0.411268 z m 4.370677,0 h -1.995031 v -0.850635 h 0.306535 V 8.5444212 H 25.787013 V 9.1906991 H 25.1203 V 7.6937867 h 3.522598 V 9.1906991 H 27.976184 V 8.5444212 h -0.406159 v 1.8519818 h 0.314198 z M 30.793751,8.4728964 V 9.13961 h 0.268219 q 0.28099,0 0.408713,-0.066416 0.122614,-0.066416 0.122614,-0.2580002 0,-0.1251685 -0.06642,-0.21202 -0.06386,-0.084297 -0.171149,-0.1072873 -0.102178,-0.02299 -0.347406,-0.02299 z m 0.357625,2.7741416 h -2.076775 v -0.850635 h 0.344852 V 8.5444212 H 29.074601 V 7.6937867 h 2.178953 q 0.751011,0 1.098417,0.1456041 0.347406,0.1481586 0.510892,0.4036044 0.163485,0.2554458 0.163485,0.5594263 0,0.3755053 -0.194139,0.6232878 -0.194139,0.2503369 -0.513446,0.362733 -0.314198,0.1098417 -0.970694,0.1098417 h -0.554318 v 0.498119 h 0.357625 z"
           id="path21" /></g><g
         id="g15"
         style="stroke-width:0.6;stroke-dasharray:none"
         transform="matrix(1.0046232,0,0,0.94127971,32.065708,16.618105)"><path
           id="rect13"
           style="fill:none;stroke:#000000"
           d="m -14.771969,-9.6462736 h 2.758621 c 0.226776,0 0.409344,0.1825673 0.409344,0.4093437 v 3.41713 c 0,0.2267764 -0.182568,0.4093437 -0.409344,0.4093437 h -2.758621 c -0.226776,0 -0.409344,-0.1825673 -0.409344,-0.4093437 v -3.41713 c 0,-0.2267764 0.182568,-0.4093437 0.409344,-0.4093437 z" /><path
           id="path13"
           style="fill:none;stroke:#000000"
           d="m -14.789767,-10.117908 a 1.3971078,1.3971078 0 0 1 1.397108,-1.397107 1.3971078,1.3971078 0 0 1 1.397108,1.397107" /><path
           style="fill:none;stroke:#000000;stroke-width:0.6;stroke-dasharray:none;stroke-opacity:1"
           d="m -14.789766,-10.215795 v 0.5339263"
           id="path14" /><path
           style="fill:none;stroke:#000000;stroke-width:0.6;stroke-dasharray:none;stroke-opacity:1"
           d="m -11.997284,-10.211889 v 0.5339265"
           id="path15" /></g></g><g
       id="g19"
       transform="matrix(0.86072856,0,0,0.86072856,40.428806,1.5445358)"><path
         d="M 0.54,3.87 0.5,3 a 2,2 0 0 1 2,-2 H 6.172 A 2,2 0 0 1 7.586,1.586 L 8.414,2.414 A 2,2 0 0 0 9.828,3 h 3.982 a 2,2 0 0 1 1.992,2.181 l -0.637,7 A 2,2 0 0 1 13.174,14 H 2.826 A 2,2 0 0 1 0.835,12.181 l -0.637,-7 A 2,2 0 0 1 0.54,3.871 Z M 2.19,4 A 1,1 0 0 0 1.194,5.09 l 0.637,7 A 1,1 0 0 0 2.826,13 h 10.348 a 1,1 0 0 0 0.995,-0.91 l 0.637,-7 A 1,1 0 0 0 13.81,4 Z M 6.88,2.293 A 1,1 0 0 0 6.172,2 H 2.5 a 1,1 0 0 0 -1,0.981 L 1.506,3.12 Q 1.829,3.001 2.19,3 h 5.396 z"
         id="path17" /><path
         style="fill:#ffd42a;stroke-width:0.0672663"
         d="M 2.5840374,12.956174 C 2.4154202,12.912001 2.2963218,12.846411 2.1647246,12.72525 2.0321118,12.603154 1.9324872,12.451349 1.8852489,12.299393 1.8557966,12.204651 1.7865198,11.498034 1.5206673,8.5806966 1.235315,5.4493777 1.1948246,4.9640872 1.2106491,4.8650296 1.2781905,4.4422373 1.5852826,4.1187621 2.0022247,4.031224 c 0.188214,-0.039516 11.8073363,-0.039516 11.9955503,0 0.416762,0.0875 0.724038,0.4110342 0.791509,0.8333868 0.01573,0.09848 -0.02531,0.5911213 -0.309809,3.7183246 -0.301035,3.3090236 -0.331557,3.6151936 -0.371978,3.7314236 -0.05797,0.16668 -0.132644,0.279922 -0.267531,0.405679 -0.136848,0.127586 -0.252979,0.191431 -0.431031,0.236969 -0.135672,0.0347 -0.213686,0.03519 -5.4162313,0.03423 -5.141498,-9.55e-4 -5.2819552,-0.0019 -5.4086663,-0.03506 z"
         id="path18" /><path
         style="fill:#aa8800;stroke-width:0.0672663"
         d="m 1.512792,2.9848293 c 0,-0.4391364 0.3266955,-0.8425342 0.766236,-0.9461346 0.1728565,-0.040743 3.9604708,-0.041193 4.1199024,-4.901e-4 0.2446492,0.062459 0.3065016,0.1075845 0.7467871,0.5448294 l 0.4093437,0.4065169 -2.7497219,3.239e-4 c -2.8951556,3.41e-4 -2.9220672,0.00101 -3.1768632,0.079205 -0.048943,0.01502 -0.094995,0.027396 -0.1023359,0.027502 -0.00734,1.059e-4 -0.013348,-0.050183 -0.013348,-0.1117525 z"
         id="path19" /></g></g></svg>
