<?xml version="1.0" encoding="UTF-8" standalone="no"?>
<svg
   width="55"
   height="16"
   fill="currentColor"
   class="bi bi-folder"
   viewBox="0 0 55 16"
   version="1.1"
   id="svg1"
   sodipodi:docname="autosftp_logo.svg"
   inkscape:version="1.3 (0e150ed6c4, 2023-07-21)"
   xml:space="preserve"
   xmlns:inkscape="http://www.inkscape.org/namespaces/inkscape"
   xmlns:sodipodi="http://sodipodi.sourceforge.net/DTD/sodipodi-0.dtd"
   xmlns="http://www.w3.org/2000/svg"
   xmlns:svg="http://www.w3.org/2000/svg"><defs
     id="defs1" /><sodipodi:namedview
     id="namedview1"
     pagecolor="#ffffff"
     bordercolor="#000000"
     borderopacity="0.25"
     inkscape:showpageshadow="2"
     inkscape:pageopacity="0.0"
     inkscape:pagecheckerboard="0"
     inkscape:deskcolor="#d1d1d1"
     inkscape:zoom="11.313709"
     inkscape:cx="23.953242"
     inkscape:cy="11.976621"
     inkscape:window-width="1920"
     inkscape:window-height="1017"
     inkscape:window-x="1912"
     inkscape:window-y="-8"
     inkscape:window-maximized="1"
     inkscape:current-layer="svg1"
     showguides="true" /><g
     id="g20"
     transform="matrix(1.4919295,0,0,1.4919295,-9.2854804,-3.935436)"><g
       id="g1"
       transform="matrix(0.57692308,0,0,0.57692308,6.7596419,3.6730769)"><path
         d="M 0.54,3.87 0.5,3 a 2,2 0 0 1 2,-2 H 6.172 A 2,2 0 0 1 7.586,1.586 L 8.414,2.414 A 2,2 0 0 0 9.828,3 h 3.982 a 2,2 0 0 1 1.992,2.181 l -0.637,7 A 2,2 0 0 1 13.174,14 H 2.826 A 2,2 0 0 1 0.835,12.181 l -0.637,-7 A 2,2 0 0 1 0.54,3.871 Z M 2.19,4 A 1,1 0 0 0 1.194,5.09 l 0.637,7 A 1,1 0 0 0 2.826,13 h 10.348 a 1,1 0 0 0 0.995,-0.91 l 0.637,-7 A 1,1 0 0 0 13.81,4 Z M 6.88,2.293 A 1,1 0 0 0 6.172,2 H 2.5 a 1,1 0 0 0 -1,0.981 L 1.506,3.12 Q 1.829,3.001 2.19,3 h 5.396 z"
         id="path1" /><path
         style="fill:#ffd42a;stroke-width:0.0672663"
         d="M 2.5840374,12.956174 C 2.4154202,12.912001 2.2963218,12.846411 2.1647246,12.72525 2.0321118,12.603154 1.9324872,12.451349 1.8852489,12.299393 1.8557966,12.204651 1.7865198,11.498034 1.5206673,8.5806966 1.235315,5.4493777 1.1948246,4.9640872 1.2106491,4.8650296 1.2781905,4.4422373 1.5852826,4.1187621 2.0022247,4.031224 c 0.188214,-0.039516 11.8073363,-0.039516 11.9955503,0 0.416762,0.0875 0.724038,0.4110342 0.791509,0.8333868 0.01573,0.09848 -0.02531,0.5911213 -0.309809,3.7183246 -0.301035,3.3090236 -0.331557,3.6151936 -0.371978,3.7314236 -0.05797,0.16668 -0.132644,0.279922 -0.267531,0.405679 -0.136848,0.127586 -0.252979,0.191431 -0.431031,0.236969 -0.135672,0.0347 -0.213686,0.03519 -5.4162313,0.03423 -5.141498,-9.55e-4 -5.2819552,-0.0019 -5.4086663,-0.03506 z"
         id="path2" /><path
         style="fill:#aa8800;stroke-width:0.0672663"
         d="m 1.512792,2.9848293 c 0,-0.4391364 0.3266955,-0.8425342 0.766236,-0.9461346 0.1728565,-0.040743 3.9604708,-0.041193 4.1199024,-4.901e-4 0.2446492,0.062459 0.3065016,0.1075845 0.7467871,0.5448294 l 0.4093437,0.4065169 -2.7497219,3.239e-4 c -2.8951556,3.41e-4 -2.9220672,0.00101 -3.1768632,0.079205 -0.048943,0.01502 -0.094995,0.027396 -0.1023359,0.027502 -0.00734,1.059e-4 -0.013348,-0.050183 -0.013348,-0.1117525 z"
         id="path3" /></g><g
       id="g17"
       transform="translate(-0.1132723,-0.05773628)"><text
         xml:space="preserve"
         style="font-style:normal;font-variant:normal;font-weight:normal;font-stretch:normal;font-size:3.82828px;line-height:44.9%;font-family:'Rockwell Extra Bold';-inkscape-font-specification:'Rockwell Extra Bold, Normal';font-variant-ligatures:normal;font-variant-caps:normal;font-variant-numeric:normal;font-variant-east-asian:normal;text-align:center;text-anchor:middle;fill:#000000;stroke:none;stroke-width:0.0267021;stroke-dasharray:none;stroke-opacity:1"
         x="26.602001"
         y="7.1774602"
         id="text9"><tspan
           sodipodi:role="line"
           id="tspan9"
           x="26.602001"
           y="7.1774602"
           style="font-style:normal;font-variant:normal;font-weight:normal;font-stretch:normal;font-size:3.82828px;font-family:'Rockwell Extra Bold';-inkscape-font-specification:'Rockwell Extra Bold, Normal';font-variant-ligatures:normal;font-variant-caps:normal;font-variant-numeric:normal;font-variant-east-asian:normal;stroke:none;stroke-width:0.0267021;stroke-dasharray:none">Auto</tspan></text><g
         id="g16"><text
           xml:space="preserve"
           style="font-style:normal;font-variant:normal;font-weight:normal;font-stretch:normal;font-size:5.23153px;line-height:44.9%;font-family:'Rockwell Extra Bold';-inkscape-font-specification:'Rockwell Extra Bold, Normal';font-variant-ligatures:normal;font-variant-caps:normal;font-variant-numeric:normal;font-variant-east-asian:normal;text-align:center;text-anchor:middle;fill:#000000;stroke:none;stroke-width:0.0364897;stroke-dasharray:none;stroke-opacity:1"
           x="25.074993"
           y="11.247038"
           id="text10"><tspan
             sodipodi:role="line"
             id="tspan10"
             x="25.074993"
             y="11.247038"
             style="font-style:normal;font-variant:normal;font-weight:normal;font-stretch:normal;font-size:5.23153px;font-family:'Rockwell Extra Bold';-inkscape-font-specification:'Rockwell Extra Bold, Normal';font-variant-ligatures:normal;font-variant-caps:normal;font-variant-numeric:normal;font-variant-east-asian:normal;stroke:none;stroke-width:0.0364897;stroke-dasharray:none"><tspan
               style="fill:#ff0000"
               id="tspan11"
               dy="-0.47">s</tspan><tspan
               style="letter-spacing:0px"
               id="tspan15"
               dx="1"
               dy="0.47">FTP</tspan></tspan></text><g
           id="g15"
           style="stroke-width:0.6;stroke-dasharray:none"
           transform="matrix(1.0046232,0,0,0.94127971,32.065708,16.618105)"><rect
             style="fill:none;stroke:#000000;stroke-width:0.6;stroke-dasharray:none;stroke-opacity:1"
             id="rect13"
             width="3.5773082"
             height="4.2358174"
             x="-15.181313"
             y="-9.6462736"
             ry="0.40934372" /><path
             style="fill:none;stroke:#000000;stroke-width:0.6;stroke-dasharray:none;stroke-opacity:1"
             id="path13"
             sodipodi:type="arc"
             sodipodi:cx="-13.392659"
             sodipodi:cy="-10.117908"
             sodipodi:rx="1.3971078"
             sodipodi:ry="1.3971078"
             sodipodi:start="3.1415927"
             sodipodi:end="0"
             sodipodi:arc-type="arc"
             d="m -14.789767,-10.117908 a 1.3971078,1.3971078 0 0 1 1.397108,-1.397107 1.3971078,1.3971078 0 0 1 1.397108,1.397107"
             sodipodi:open="true" /><path
             style="fill:none;stroke:#000000;stroke-width:0.6;stroke-dasharray:none;stroke-opacity:1"
             d="m -14.789766,-10.215795 v 0.5339263"
             id="path14" /><path
             style="fill:none;stroke:#000000;stroke-width:0.6;stroke-dasharray:none;stroke-opacity:1"
             d="m -11.997284,-10.211889 v 0.5339265"
             id="path15" /></g></g></g><g
       id="g19"
       transform="matrix(0.57692308,0,0,0.57692308,33.322142,3.6730769)"><path
         d="M 0.54,3.87 0.5,3 a 2,2 0 0 1 2,-2 H 6.172 A 2,2 0 0 1 7.586,1.586 L 8.414,2.414 A 2,2 0 0 0 9.828,3 h 3.982 a 2,2 0 0 1 1.992,2.181 l -0.637,7 A 2,2 0 0 1 13.174,14 H 2.826 A 2,2 0 0 1 0.835,12.181 l -0.637,-7 A 2,2 0 0 1 0.54,3.871 Z M 2.19,4 A 1,1 0 0 0 1.194,5.09 l 0.637,7 A 1,1 0 0 0 2.826,13 h 10.348 a 1,1 0 0 0 0.995,-0.91 l 0.637,-7 A 1,1 0 0 0 13.81,4 Z M 6.88,2.293 A 1,1 0 0 0 6.172,2 H 2.5 a 1,1 0 0 0 -1,0.981 L 1.506,3.12 Q 1.829,3.001 2.19,3 h 5.396 z"
         id="path17" /><path
         style="fill:#ffd42a;stroke-width:0.0672663"
         d="M 2.5840374,12.956174 C 2.4154202,12.912001 2.2963218,12.846411 2.1647246,12.72525 2.0321118,12.603154 1.9324872,12.451349 1.8852489,12.299393 1.8557966,12.204651 1.7865198,11.498034 1.5206673,8.5806966 1.235315,5.4493777 1.1948246,4.9640872 1.2106491,4.8650296 1.2781905,4.4422373 1.5852826,4.1187621 2.0022247,4.031224 c 0.188214,-0.039516 11.8073363,-0.039516 11.9955503,0 0.416762,0.0875 0.724038,0.4110342 0.791509,0.8333868 0.01573,0.09848 -0.02531,0.5911213 -0.309809,3.7183246 -0.301035,3.3090236 -0.331557,3.6151936 -0.371978,3.7314236 -0.05797,0.16668 -0.132644,0.279922 -0.267531,0.405679 -0.136848,0.127586 -0.252979,0.191431 -0.431031,0.236969 -0.135672,0.0347 -0.213686,0.03519 -5.4162313,0.03423 -5.141498,-9.55e-4 -5.2819552,-0.0019 -5.4086663,-0.03506 z"
         id="path18" /><path
         style="fill:#aa8800;stroke-width:0.0672663"
         d="m 1.512792,2.9848293 c 0,-0.4391364 0.3266955,-0.8425342 0.766236,-0.9461346 0.1728565,-0.040743 3.9604708,-0.041193 4.1199024,-4.901e-4 0.2446492,0.062459 0.3065016,0.1075845 0.7467871,0.5448294 l 0.4093437,0.4065169 -2.7497219,3.239e-4 c -2.8951556,3.41e-4 -2.9220672,0.00101 -3.1768632,0.079205 -0.048943,0.01502 -0.094995,0.027396 -0.1023359,0.027502 -0.00734,1.059e-4 -0.013348,-0.050183 -0.013348,-0.1117525 z"
         id="path19" /></g></g></svg>
