<?xml version="1.0" encoding="UTF-8" standalone="no"?>
<svg
   width="16"
   height="16"
   fill="currentColor"
   class="bi bi-folder"
   viewBox="0 0 16 16"
   version="1.1"
   id="svg1"
   sodipodi:docname="folder.svg"
   inkscape:version="1.3.1 (91b66b0783, 2023-11-16)"
   xmlns:inkscape="http://www.inkscape.org/namespaces/inkscape"
   xmlns:sodipodi="http://sodipodi.sourceforge.net/DTD/sodipodi-0.dtd"
   xmlns="http://www.w3.org/2000/svg"
   xmlns:svg="http://www.w3.org/2000/svg">
  <defs
     id="defs1" />
  <sodipodi:namedview
     id="namedview1"
     pagecolor="#ffffff"
     bordercolor="#000000"
     borderopacity="0.25"
     inkscape:showpageshadow="2"
     inkscape:pageopacity="0.0"
     inkscape:pagecheckerboard="0"
     inkscape:deskcolor="#d1d1d1"
     inkscape:zoom="56.1875"
     inkscape:cx="7.9911012"
     inkscape:cy="8"
     inkscape:window-width="1920"
     inkscape:window-height="1137"
     inkscape:window-x="-8"
     inkscape:window-y="-8"
     inkscape:window-maximized="1"
     inkscape:current-layer="svg1" />
  <path
     d="M.54 3.87.5 3a2 2 0 0 1 2-2h3.672a2 2 0 0 1 1.414.586l.828.828A2 2 0 0 0 9.828 3h3.982a2 2 0 0 1 1.992 2.181l-.637 7A2 2 0 0 1 13.174 14H2.826a2 2 0 0 1-1.991-1.819l-.637-7a2 2 0 0 1 .342-1.31zM2.19 4a1 1 0 0 0-.996 1.09l.637 7a1 1 0 0 0 .995.91h10.348a1 1 0 0 0 .995-.91l.637-7A1 1 0 0 0 13.81 4zm4.69-1.707A1 1 0 0 0 6.172 2H2.5a1 1 0 0 0-1 .981l.006.139q.323-.119.684-.12h5.396z"
     id="path1" />
  <path
     style="fill:#ffd42a;stroke-width:0.0672663"
     d="M 2.5840374,12.956174 C 2.4154202,12.912001 2.2963218,12.846411 2.1647246,12.72525 2.0321118,12.603154 1.9324872,12.451349 1.8852489,12.299393 1.8557966,12.204651 1.7865198,11.498034 1.5206673,8.5806966 1.235315,5.4493777 1.1948246,4.9640872 1.2106491,4.8650296 1.2781905,4.4422373 1.5852826,4.1187621 2.0022247,4.031224 c 0.188214,-0.039516 11.8073363,-0.039516 11.9955503,0 0.416762,0.0875 0.724038,0.4110342 0.791509,0.8333868 0.01573,0.09848 -0.02531,0.5911213 -0.309809,3.7183246 -0.301035,3.3090236 -0.331557,3.6151936 -0.371978,3.7314236 -0.05797,0.16668 -0.132644,0.279922 -0.267531,0.405679 -0.136848,0.127586 -0.252979,0.191431 -0.431031,0.236969 -0.135672,0.0347 -0.213686,0.03519 -5.4162313,0.03423 -5.141498,-9.55e-4 -5.2819552,-0.0019 -5.4086663,-0.03506 z"
     id="path2" />
  <path
     style="fill:#aa8800;stroke-width:0.0672663"
     d="m 1.512792,2.9848293 c 0,-0.4391364 0.3266955,-0.8425342 0.766236,-0.9461346 0.1728565,-0.040743 3.9604708,-0.041193 4.1199024,-4.901e-4 0.2446492,0.062459 0.3065016,0.1075845 0.7467871,0.5448294 l 0.4093437,0.4065169 -2.7497219,3.239e-4 c -2.8951556,3.41e-4 -2.9220672,0.00101 -3.1768632,0.079205 -0.048943,0.01502 -0.094995,0.027396 -0.1023359,0.027502 -0.00734,1.059e-4 -0.013348,-0.050183 -0.013348,-0.1117525 z"
     id="path3" />
</svg>
